<?xml version="1.0" encoding="utf-8"?>
<!-- Generator: Adobe Illustrator 17.1.0, SVG Export Plug-In . SVG Version: 6.00 Build 0)  -->
<!DOCTYPE svg PUBLIC "-//W3C//DTD SVG 1.1//EN" "http://www.w3.org/Graphics/SVG/1.1/DTD/svg11.dtd">
<svg version="1.1" id="Layer_1" xmlns="http://www.w3.org/2000/svg" xmlns:xlink="http://www.w3.org/1999/xlink" x="0px" y="0px"
	 width="24px" height="18px" viewBox="0 0 24 18" style="enable-background:new 0 0 24 18;" xml:space="preserve">
<g>
	<path style="fill:#FFFFFF;" d="M22.5,15h-21C0.7,15,0,15.7,0,16.5C0,17.3,0.7,18,1.5,18h21c0.8,0,1.5-0.7,1.5-1.5
		C24,15.7,23.3,15,22.5,15z"/>
	<path style="fill:#FFFFFF;" d="M7.5,13.5h9c1.7,0,3-1.3,3-3c2.5,0,4.5-2,4.5-4.5c0-2.5-2-4.5-4.5-4.5V0h-15v10.5
		C4.5,12.2,5.8,13.5,7.5,13.5z M22.5,6c0,1.7-1.3,3-3,3V3C21.2,3,22.5,4.3,22.5,6z M6,1.5h1.5V12C6.7,12,6,11.3,6,10.5V1.5z"/>
</g>
</svg>
